<mxfile host="app.diagrams.net" modified="2021-01-27T00:40:53.567Z" agent="5.0 (Windows NT 10.0; Win64; x64) AppleWebKit/537.36 (KHTML, like Gecko) Chrome/88.0.4324.104 Safari/537.36" etag="xdojcb0WMR3n8yEaVVRR" version="14.2.7" type="github">
  <diagram id="YiRZ1j0kCXhuioVK4hL9" name="Page-1">
    <mxGraphModel dx="1422" dy="762" grid="1" gridSize="10" guides="1" tooltips="1" connect="1" arrows="1" fold="1" page="1" pageScale="1" pageWidth="1100" pageHeight="850" math="0" shadow="0">
      <root>
        <mxCell id="0" />
        <mxCell id="1" parent="0" />
        <mxCell id="nhHmiD-vkU7_qff4OOfj-3" value="" style="edgeStyle=orthogonalEdgeStyle;rounded=0;orthogonalLoop=1;jettySize=auto;html=1;" edge="1" parent="1" source="nhHmiD-vkU7_qff4OOfj-1" target="nhHmiD-vkU7_qff4OOfj-2">
          <mxGeometry relative="1" as="geometry" />
        </mxCell>
        <mxCell id="nhHmiD-vkU7_qff4OOfj-16" style="edgeStyle=orthogonalEdgeStyle;rounded=0;orthogonalLoop=1;jettySize=auto;html=1;entryX=0;entryY=0.5;entryDx=0;entryDy=0;exitX=1;exitY=0.5;exitDx=0;exitDy=0;" edge="1" parent="1" source="nhHmiD-vkU7_qff4OOfj-1" target="nhHmiD-vkU7_qff4OOfj-4">
          <mxGeometry relative="1" as="geometry">
            <Array as="points">
              <mxPoint x="270" y="430" />
              <mxPoint x="270" y="370" />
              <mxPoint x="390" y="370" />
              <mxPoint x="390" y="250" />
            </Array>
          </mxGeometry>
        </mxCell>
        <mxCell id="nhHmiD-vkU7_qff4OOfj-1" value="Collect data" style="rounded=0;whiteSpace=wrap;html=1;fillColor=#fff2cc;strokeColor=#d6b656;" vertex="1" parent="1">
          <mxGeometry x="320" y="400" width="120" height="60" as="geometry" />
        </mxCell>
        <mxCell id="nhHmiD-vkU7_qff4OOfj-5" value="" style="edgeStyle=orthogonalEdgeStyle;rounded=0;orthogonalLoop=1;jettySize=auto;html=1;entryX=0;entryY=0.5;entryDx=0;entryDy=0;" edge="1" parent="1" source="nhHmiD-vkU7_qff4OOfj-2" target="nhHmiD-vkU7_qff4OOfj-6">
          <mxGeometry relative="1" as="geometry">
            <mxPoint x="480" y="430" as="targetPoint" />
          </mxGeometry>
        </mxCell>
        <mxCell id="nhHmiD-vkU7_qff4OOfj-2" value="Clean data" style="rounded=0;whiteSpace=wrap;html=1;fillColor=#f8cecc;strokeColor=#b85450;" vertex="1" parent="1">
          <mxGeometry x="510" y="400" width="120" height="60" as="geometry" />
        </mxCell>
        <mxCell id="nhHmiD-vkU7_qff4OOfj-4" value="Analyze data" style="rounded=0;whiteSpace=wrap;html=1;fillColor=#60a917;strokeColor=#2D7600;fontColor=#ffffff;" vertex="1" parent="1">
          <mxGeometry x="470" y="220" width="120" height="60" as="geometry" />
        </mxCell>
        <mxCell id="nhHmiD-vkU7_qff4OOfj-12" value="" style="edgeStyle=orthogonalEdgeStyle;rounded=0;orthogonalLoop=1;jettySize=auto;html=1;" edge="1" parent="1" source="nhHmiD-vkU7_qff4OOfj-6" target="nhHmiD-vkU7_qff4OOfj-11">
          <mxGeometry relative="1" as="geometry" />
        </mxCell>
        <mxCell id="nhHmiD-vkU7_qff4OOfj-6" value="Modeling" style="rounded=0;whiteSpace=wrap;html=1;fillColor=#dae8fc;strokeColor=#6c8ebf;" vertex="1" parent="1">
          <mxGeometry x="680" y="400" width="120" height="60" as="geometry" />
        </mxCell>
        <mxCell id="nhHmiD-vkU7_qff4OOfj-9" style="edgeStyle=orthogonalEdgeStyle;rounded=0;orthogonalLoop=1;jettySize=auto;html=1;" edge="1" parent="1" source="nhHmiD-vkU7_qff4OOfj-8" target="nhHmiD-vkU7_qff4OOfj-1">
          <mxGeometry relative="1" as="geometry" />
        </mxCell>
        <mxCell id="nhHmiD-vkU7_qff4OOfj-8" value="1. Design study protocol/database with Clinical staffs to ensure the data quality:&lt;br&gt;a. HR: protocol such as screening and regular visits; actual test protocol (types of activities, test length, ground truth equipment, to ensure consistency and quality)&lt;br&gt;b. AF: protocol for outpatient, labeling the AF and data monitoring&lt;br&gt;c. BP: protocol of getting ground truth data&lt;br&gt;&lt;br&gt;&lt;br&gt;2. Work on development of data collection tools:&lt;br&gt;a. HR IBM clinical&lt;br&gt;b. AF software: signal quality indicator, data storage and backup;&amp;nbsp;" style="text;html=1;strokeColor=none;fillColor=none;align=left;verticalAlign=top;whiteSpace=wrap;rounded=0;" vertex="1" parent="1">
          <mxGeometry x="250" y="545" width="220" height="250" as="geometry" />
        </mxCell>
        <mxCell id="nhHmiD-vkU7_qff4OOfj-13" value="" style="edgeStyle=orthogonalEdgeStyle;rounded=0;orthogonalLoop=1;jettySize=auto;html=1;" edge="1" parent="1" source="nhHmiD-vkU7_qff4OOfj-10" target="nhHmiD-vkU7_qff4OOfj-6">
          <mxGeometry relative="1" as="geometry" />
        </mxCell>
        <mxCell id="nhHmiD-vkU7_qff4OOfj-10" value="1. HR: DeepPPG: PPG+ACC using both time and frequency domain data (spectrogram) with a simple CNN (0.25 M parameters)&lt;br&gt;&lt;br&gt;&lt;br&gt;2. AF:&amp;nbsp; using both time and frequency domain data with a simple CNN (0.25 M parameters)&lt;br&gt;use PPG with ACC&amp;nbsp;&lt;br&gt;&lt;br&gt;3. BP:&amp;nbsp;" style="text;html=1;strokeColor=none;fillColor=none;align=left;verticalAlign=top;whiteSpace=wrap;rounded=0;" vertex="1" parent="1">
          <mxGeometry x="730" y="530" width="190" height="240" as="geometry" />
        </mxCell>
        <mxCell id="nhHmiD-vkU7_qff4OOfj-11" value="Evaluation/Visualization" style="rounded=0;whiteSpace=wrap;html=1;fillColor=#d5e8d4;strokeColor=#82b366;" vertex="1" parent="1">
          <mxGeometry x="880" y="400" width="180" height="60" as="geometry" />
        </mxCell>
        <mxCell id="nhHmiD-vkU7_qff4OOfj-15" value="" style="edgeStyle=orthogonalEdgeStyle;rounded=0;orthogonalLoop=1;jettySize=auto;html=1;" edge="1" parent="1" source="nhHmiD-vkU7_qff4OOfj-14" target="nhHmiD-vkU7_qff4OOfj-2">
          <mxGeometry relative="1" as="geometry" />
        </mxCell>
        <mxCell id="nhHmiD-vkU7_qff4OOfj-14" value="1. HR: nothing to clean&amp;nbsp;&lt;br&gt;&lt;br&gt;2. AF:&lt;br&gt;a. remove ECG data with a lot of motion artifacts done the ECG provider&lt;br&gt;b. synchronization ECG and PPG (take the front and end 30s of PPG data to deal with sensor drift)&lt;br&gt;c. labeled PPG with moderate motion artifacts (big motion artifacts have already been removed when removing ECG data)&lt;br&gt;&lt;br&gt;3. BP: noting to clean" style="text;html=1;strokeColor=none;fillColor=none;align=left;verticalAlign=top;whiteSpace=wrap;rounded=0;" vertex="1" parent="1">
          <mxGeometry x="500" y="545" width="200" height="190" as="geometry" />
        </mxCell>
        <mxCell id="nhHmiD-vkU7_qff4OOfj-18" style="edgeStyle=orthogonalEdgeStyle;rounded=0;orthogonalLoop=1;jettySize=auto;html=1;" edge="1" parent="1" source="nhHmiD-vkU7_qff4OOfj-17" target="nhHmiD-vkU7_qff4OOfj-1">
          <mxGeometry relative="1" as="geometry" />
        </mxCell>
        <mxCell id="nhHmiD-vkU7_qff4OOfj-17" value="Signal quality check" style="rounded=0;whiteSpace=wrap;html=1;fillColor=#ffe6cc;strokeColor=#d79b00;" vertex="1" parent="1">
          <mxGeometry x="110" y="400" width="120" height="60" as="geometry" />
        </mxCell>
        <mxCell id="nhHmiD-vkU7_qff4OOfj-20" style="edgeStyle=orthogonalEdgeStyle;rounded=0;orthogonalLoop=1;jettySize=auto;html=1;entryX=1;entryY=0.4;entryDx=0;entryDy=0;entryPerimeter=0;" edge="1" parent="1" source="nhHmiD-vkU7_qff4OOfj-19" target="nhHmiD-vkU7_qff4OOfj-4">
          <mxGeometry relative="1" as="geometry" />
        </mxCell>
        <mxCell id="nhHmiD-vkU7_qff4OOfj-19" value="1. HR: ANOVA or t-test to find which features (e.g dome color or type affect the sensor accuracy)&lt;br&gt;2. HR: MAPE and MAE calculation to find out which accuracy vs activity&lt;br&gt;" style="text;html=1;strokeColor=none;fillColor=none;align=left;verticalAlign=top;whiteSpace=wrap;rounded=0;" vertex="1" parent="1">
          <mxGeometry x="710" y="100" width="270" height="80" as="geometry" />
        </mxCell>
        <mxCell id="nhHmiD-vkU7_qff4OOfj-22" style="edgeStyle=orthogonalEdgeStyle;rounded=0;orthogonalLoop=1;jettySize=auto;html=1;" edge="1" parent="1" source="nhHmiD-vkU7_qff4OOfj-21" target="nhHmiD-vkU7_qff4OOfj-17">
          <mxGeometry relative="1" as="geometry" />
        </mxCell>
        <mxCell id="nhHmiD-vkU7_qff4OOfj-21" value="1. Configuration study: which LED with which wavelength to use: &lt;br&gt;a. PI: band pass filter to obtain AC part -&amp;gt; calculate the AC amplitude -&amp;gt; calculate the DC amplitude -&amp;gt; AC/DC ratio&lt;br&gt;b. SNR: high pass filter (20Hz) to obtain the noise part -&amp;gt; noise/signal input&lt;br&gt;c. qualify factor: apply fft on every 6s signal to get fft spectrum -&amp;gt; experienced equation to calculate how prominent of frequency peak with max amplitude&lt;br&gt;&lt;br&gt;2. Different requirement for different applications:&lt;br&gt;a. collect data from target patient and to decide whether the signal quality is good enough&lt;br&gt;b. change the sensing strategy (wavelength, location...)" style="text;html=1;strokeColor=none;fillColor=none;align=left;verticalAlign=top;whiteSpace=wrap;rounded=0;" vertex="1" parent="1">
          <mxGeometry x="30" y="100" width="280" height="240" as="geometry" />
        </mxCell>
        <mxCell id="nhHmiD-vkU7_qff4OOfj-28" value="&lt;h1&gt;PPG data framework&lt;/h1&gt;&lt;p&gt;Framework of how to work with PPG data in hearing aid&lt;/p&gt;" style="text;html=1;strokeColor=none;fillColor=none;spacing=5;spacingTop=-20;whiteSpace=wrap;overflow=hidden;rounded=0;align=left;" vertex="1" parent="1">
          <mxGeometry x="20" y="10" width="350" height="120" as="geometry" />
        </mxCell>
      </root>
    </mxGraphModel>
  </diagram>
</mxfile>
